<svg xmlns="http://www.w3.org/2000/svg" width="500" height="500" style="width:100%;height:100%;transform:translate3d(0,0,0);content-visibility:visible" viewBox="0 0 500 500"><defs><clipPath id="a"><path d="M0 0h500v500H0z"/></clipPath></defs><g clipPath="url(#a)"><g style="display:block"><path fill="#636D78" d="m286.727 411.913 1.61-78.01 1.61-78.01h-79.71c.535 26.004 1.068 52.007 1.6 78.01.533 26.005 1.065 52.009 1.6 78.01h36.655v-121.5 121.5h36.635z"/><path fill="#FFC638" d="M286.756 411.428s25.86 12.68 17.54 25.82h-54.185v-25.82h36.645z"/><path fill="#FFC638" d="M249.959 437.401h-54.185c-8.32-13.14 17.54-25.82 17.54-25.82l36.895.02-.25 25.8z"/><path fill="none" stroke="#121330" strokeLinecap="round" strokeLinejoin="round" strokeWidth="7" d="m249.971 293.401-.008 57.099-.013 86.722h-54.159c-8.323-13.141 17.54-25.82 17.54-25.82l-1.277-62.383-1.917-93.634m39.848 38.016.009 57.099.012 86.722h54.159c8.323-13.141-17.54-25.82-17.54-25.82l1.276-61.925 1.939-94.092"/></g><g style="display:block"><path fill="#F8C8C0" d="M271.719 98.233v31.89c0 3.46-2.83 6.3-6.3 6.3h-19.7c-11.58 0-21.05-9.48-21.05-21.05v-17.14c0-11.58 9.47-21.06 21.05-21.06h4.95c11.58 0 21.05 9.48 21.05 21.06z"/><path fill="#AF6835" d="M271.674 99.468c-.655-1.99-1.479-5.782-7.719-9.535-6.852-4.121-13.466 7.897-21.383 4.414-9.756-4.292-16.251-.884-17.942 5.121a27.09 27.09 0 0 1 .115-3.424c1.026-10.844 10.834-19.244 21.82-18.799h3.168c8.913-.297 16.813 4.981 20.088 12.446 1.378 2.94 1.853 6.311 1.853 9.777z"/><path fill="none" stroke="#121330" strokeLinecap="round" strokeLinejoin="round" strokeWidth="7" d="M245.562 136.433h19.706c3.463 0 6.297-2.834 6.297-6.297V98.24c0-11.579-9.474-21.052-21.053-21.052h-4.95c-11.579 0-21.052 9.473-21.052 21.052v17.14c0 11.579 9.473 21.053 21.052 21.053z"/></g><g style="display:block"><path fill="#4AB3FC" d="m289.845 181.982 38.656-54.061 44.104-61.679s-21.71-23.29-37.75 4.37l-28.316 37.693-35.394 47.117h-42.29l-35.4-47.117-28.32-37.693c-16.03-27.66-37.74-4.37-37.74-4.37l43.932 61.485 38.772 54.263.038 73.691h79.706l.002-73.699z"/><path fill="none" stroke="#121330" strokeLinecap="round" strokeLinejoin="round" strokeWidth="7" d="m210.099 181.695.038 73.69h79.706v-73.69m-79.744 0-41.925-58.677-40.779-57.072s21.71-23.29 37.74 4.37l26.109 34.752 37.611 50.058m42.29 0 34.604-46.064 29.106-38.746c16.04-27.66 37.75-4.37 37.75-4.37l-41.949 58.666-40.811 57.074m-18.7-26.56h-42.29"/></g><g className="com" style="display:none"><path/><path/><path/><path/><path/><path/><path/><path/><path/><path/><path/><path/></g></g></svg>