<?xml version="1.0" encoding="UTF-8"?>
<svg width="111px" height="39px" viewBox="0 0 111 39" version="1.1" xmlns="http://www.w3.org/2000/svg" xmlns:xlink="http://www.w3.org/1999/xlink">
    <!-- Generator: Sketch 52.6 (67491) - http://www.bohemiancoding.com/sketch -->
    <title>Pathao_New_Logo</title>
    <desc>Created with Sketch.</desc>
    <g id="Page-1" stroke="none" strokeWidth="1" fill="none" fillRule="evenodd">
        <g id="Navigation/bar/white" transform="translate(-247.000000, -24.000000)">
            <g id="Navigation-bar" transform="translate(-1.000000, 0.000000)">
                <g id="Group-2" transform="translate(248.000000, 23.000000)">
                    <g id="Pathao_New_Logo" transform="translate(0.000000, 1.000000)">
                        <path d="M58.8843079,11.4144759 C59.3081742,11.4209651 59.4273866,11.5377704 59.3744033,11.9725458 C59.32142,12.4073211 59.2353222,12.8356073 59.1558473,13.2638935 C58.9107995,14.6201331 58.6591289,15.9763727 58.4074582,17.3261231 C58.3942124,17.391015 58.3677208,17.4818636 58.4339499,17.5207987 C58.5134248,17.5727121 58.5928998,17.5078203 58.6591289,17.4688852 C59.3545346,17.0470882 60.1095465,16.7550749 60.897673,16.5603993 C63.1560859,15.9958403 65.0833532,15.9569052 67.0106205,17.391015 C68.2159905,18.2865225 69.076969,19.6946755 69.3617542,21.115807 C69.6597852,22.6472546 69.3882458,24.1592346 69.1167064,25.6647255 C68.8451671,27.2026622 68.5736277,28.740599 68.3020883,30.2785358 C68.0901551,31.4790349 67.878222,32.6730449 67.6596659,33.8735441 C67.6133055,34.1266223 67.4676014,34.2823627 67.1761933,34.2758735 C66.447673,34.2693844 65.7125298,34.2758735 64.9840095,34.2693844 C64.652864,34.2628952 64.4740453,34.0357737 64.5336516,33.7178037 C65.0767303,30.7911814 65.5602029,27.8580699 66.1827566,24.944426 C66.3218377,24.2825291 66.4211814,23.6076539 66.4145585,22.9262895 C66.4145585,21.0184692 64.878043,19.4805324 62.924284,19.3572379 C61.4937351,19.2663894 60.2883652,19.7271215 59.2088305,20.6031614 C57.976969,21.6024958 57.3875298,22.9327787 57.1226134,24.4382696 C56.6656325,27.0274542 56.1887828,29.6166389 55.7185561,32.2058236 C55.6192124,32.7703827 55.5198687,33.3349418 55.427148,33.90599 C55.3874105,34.152579 55.2483294,34.2758735 55.0032816,34.2758735 C54.2350239,34.2758735 53.473389,34.2758735 52.7051313,34.2758735 C52.4335919,34.2758735 52.3342482,34.1136439 52.3408711,33.8670549 C52.3673628,33.1986689 52.5395585,32.5497504 52.6587709,31.8943428 C52.950179,30.2331115 53.24821,28.5718802 53.5462411,26.9106489 C53.7846659,25.5738769 54.0297136,24.243594 54.2681384,22.906822 C54.5727924,21.2326123 54.8708234,19.5584027 55.1688544,17.8906822 C55.4602625,16.2943428 55.7516706,14.7044925 56.0430788,13.1081531 C56.1225537,12.6539101 56.2218974,12.2061564 56.2947494,11.7519135 C56.3344869,11.5118136 56.4669451,11.4144759 56.698747,11.4144759 C57.0894988,11.4144759 57.4802506,11.4144759 57.8643795,11.4144759 C58.202148,11.4079867 58.5465394,11.4079867 58.8843079,11.4144759 Z" id="Fill-1" fill="#262626"></path>
                        <path d="M94.1844272,32.0630616 C90.8862172,28.7211314 91.502148,22.9003328 95.548747,19.0652246 C99.5953461,15.2301165 105.555967,14.8342762 108.854177,18.1826955 C112.152387,21.5246256 111.536456,27.3454243 107.489857,31.1805324 C103.436635,35.0156406 97.4826372,35.4114809 94.1844272,32.0630616 Z M96.5024463,29.8502496 C98.628401,32.0111481 102.595525,31.6412646 105.357279,29.0261231 C108.119033,26.4109817 108.635621,22.5434276 106.509666,20.3825291 C104.383711,18.2216306 100.416587,18.5915141 97.6548329,21.2066556 C94.8930788,23.821797 94.3764916,27.6893511 96.5024463,29.8502496 Z" id="Combined-Shape-Copy-3" fill="#262626" fillRule="nonzero"></path>
                        <path d="M4.63603819,32.043594 L4.40423628,31.8229617 C4.40423628,31.8229617 3.25184964,38.3056572 3.20548926,38.4678869 C3.15912888,38.6301165 3.1723747,38.9026622 2.81473747,38.9545757 L0.596062053,38.9545757 C0.298031026,38.9545757 -0.0397374702,38.8831947 0.00662291169,38.4678869 C0.668914081,34.6198003 2.23192124,25.3402662 2.99355609,23.4194676 C4.02673031,20.7978369 5.2652148,19.7206323 6.00698091,19.0392679 C10.1198091,15.2690516 16.0142005,14.8083195 19.3124105,18.1567388 C22.6106205,21.5051581 21.9946897,27.3194676 17.9480907,31.1545757 C13.8948687,34.9896839 7.93424821,35.3855241 4.63603819,32.043594 Z M6.91431981,29.8242928 C9.04027446,31.9851913 13.0073986,31.6153078 15.7691527,29.0001664 C18.5309069,26.385025 19.047494,22.5174709 16.9215394,20.3565724 C14.7955847,18.1956739 10.8284606,18.5655574 8.06670644,21.1806988 C5.30495227,23.7958403 4.78836516,27.6633943 6.91431981,29.8242928 Z" id="Combined-Shape" fill="#262626" fillRule="nonzero"></path>
                        <path d="M25.3723747,32.0630616 C22.0741647,28.7211314 22.6900955,22.9003328 26.7366945,19.0652246 C30.7832936,15.2301165 36.7439141,14.8342762 40.0421241,18.1826955 C41.6912291,19.850416 42.3601432,22.1410982 42.1150955,24.490183 C41.7839499,27.6569052 40.7640215,32.9001664 40.6050716,33.8151414 C40.57858,33.9838602 40.5322196,34.2693844 40.2540573,34.2693844 C39.4924224,34.2693844 38.0552506,34.2693844 38.0088902,34.2693844 C37.4393198,34.2823627 37.4923031,33.977371 37.4856802,33.8151414 C37.4591885,33.3933444 37.8168258,31.9138103 37.7638425,31.9592346 C33.7768496,35.0480865 28.4321599,35.171381 25.3723747,32.0630616 Z M27.6903938,29.8502496 C29.8163484,32.0111481 33.7834726,31.6412646 36.5452267,29.0261231 C39.3069809,26.4109817 39.823568,22.5434276 37.6976134,20.3825291 C35.5716587,18.2216306 31.6045346,18.5915141 28.8427804,21.2066556 C26.0810263,23.821797 25.5644391,27.6893511 27.6903938,29.8502496 Z" id="Combined-Shape-Copy-2" fill="#262626" fillRule="nonzero"></path>
                        <path d="M73.0573389,32.0630616 C69.7591289,28.7211314 70.3750597,22.9003328 74.4216587,19.0652246 C78.4682578,15.2301165 84.4288783,14.8342762 87.7270883,18.1826955 C89.3761933,19.850416 90.0451074,22.1410982 89.8000597,24.490183 C89.4689141,27.6569052 88.4489857,32.9001664 88.2900358,33.8151414 C88.2635442,33.9838602 88.2171838,34.2693844 87.9390215,34.2693844 C87.1773866,34.2693844 85.7402148,34.2693844 85.6938544,34.2693844 C85.124284,34.2823627 85.1772673,33.977371 85.1706444,33.8151414 C85.1441527,33.3933444 85.50179,31.9138103 85.4488067,31.9592346 C81.4618138,35.0480865 76.1171241,35.171381 73.0573389,32.0630616 Z M75.375358,29.8502496 C77.5013126,32.0111481 81.4684368,31.6412646 84.2301909,29.0261231 C86.9919451,26.4109817 87.5085322,22.5434276 85.3825776,20.3825291 C83.2566229,18.2216306 79.2894988,18.5915141 76.5277446,21.2066556 C73.7659905,23.821797 73.2494033,27.6893511 75.375358,29.8502496 Z" id="Combined-Shape-Copy-2_1_" fill="#262626" fillRule="nonzero"></path>
                        <path d="M49.1883652,19.324792 C48.9565632,19.324792 48.824105,19.4351082 48.7909905,19.6557404 C48.6187947,20.5772047 48.3605012,21.959401 48.0161098,23.8088186 C47.6452267,25.8269551 47.3736874,27.3584027 47.2014916,28.4031614 C46.9431981,29.9735441 46.9961814,31.1545757 48.9499403,31.303827 C49.1883652,31.3232945 49.5327566,31.3687188 49.8241647,31.4271215 C50.3672434,31.5309484 50.5791766,31.8424293 50.4665871,32.3745424 C50.3473747,32.9261231 50.2281623,33.4777038 50.1089499,34.0292845 C50.0692124,34.2044925 49.9764916,34.3212978 49.7778043,34.327787 C48.9366945,34.327787 48.0955847,34.3342762 47.2677208,34.1331115 C45.4927804,33.7048253 44.0887232,32.2317804 43.8569212,30.5056572 C43.7774463,29.8891847 43.8304296,29.2727121 43.9231504,28.6627288 C44.0754773,27.650416 44.2609189,26.6381032 44.4463604,25.6322795 C44.6119332,24.7173045 44.7907518,23.8023295 44.9563246,22.8808652 C45.1152745,21.9853577 45.2808473,21.0898502 45.4000597,20.1813644 C45.4265513,19.9477537 45.4795346,19.7206323 45.525895,19.4870216 C45.5523866,19.3572379 45.5060263,19.324792 45.3801909,19.324792 C44.9629475,19.3312812 44.5390811,19.324792 44.1218377,19.324792 C43.6979714,19.324792 43.5986277,19.1950083 43.6582339,18.7732113 C43.7509547,18.1048253 43.8900358,17.4364393 44.0423628,16.7810316 C44.1417064,16.3527454 44.3735084,16.1905158 44.8172434,16.1840266 C45.1682578,16.1840266 45.5192721,16.1775374 45.8702864,16.1840266 C46.049105,16.1905158 46.1352029,16.1515807 46.1683174,15.9569052 C46.4001193,14.685025 46.6451671,13.4131448 46.8902148,12.1412646 C46.9100835,12.0374376 46.9365752,11.9336106 46.9763126,11.8297837 C47.0756563,11.5507488 47.2809666,11.4079867 47.5856205,11.4079867 C48.2611575,11.4079867 48.9300716,11.4079867 49.6056086,11.4079867 C50.0559666,11.4079867 50.248031,11.6156406 50.1685561,12.0439268 C50.0029833,12.9134775 49.8506563,13.7830283 49.7049523,14.6590682 C49.6387232,15.074376 49.5526253,15.4896839 49.4797733,15.9049917 C49.4532816,16.0412646 49.4930191,16.1386023 49.6585919,16.1580699 C49.7446897,16.1710483 49.8374105,16.1775374 49.9235084,16.1775374 C50.8109785,16.1775374 51.6984487,16.1905158 52.5859189,16.1710483 C53.3541766,16.1515807 53.3144391,16.4630616 53.2614558,16.9432612 C53.1886038,17.5402662 53.0561456,18.130782 52.9369332,18.7212978 C52.8442124,19.18203 52.6720167,19.3118136 52.1819212,19.3118136 C51.6984487,19.3118136 51.221599,19.3118136 50.7381265,19.3118136 C50.3738663,19.324792 49.8639021,19.324792 49.1883652,19.324792 Z" id="Fill-12-Copy" fill="#262626"></path>
                        <path d="M83.1440334,12.9589018 C81.6472554,11.2392679 82.3095465,9.82462562 83.6539976,8.65657238 C86.3031623,6.34642263 91.6346062,4.10116473 93.6082339,3.83510815 C94.4957041,3.71830283 95.0520286,4.02329451 95.548747,4.48402662 C96.0454654,4.94475874 96.4759547,6.41780366 96.8335919,7.36522463 C97.1912291,8.31264559 98.3369928,10.3891847 99.1317422,11.3106489 C99.5953461,11.8557404 101.83389,13.6986689 103.118735,14.6071547 C103.383652,14.7628952 103.542601,14.9381032 103.396897,15.2625624 C103.251193,15.5935108 102.966408,15.5351082 102.761098,15.4377704 C100.118556,14.1983361 98.3436158,13.3547421 97.5356205,12.6279534 C96.7342482,11.9011647 95.5884845,10.5643927 95.1579952,10.0257903 C94.727506,9.48718802 94.277148,9.64292845 93.5287589,9.81813644 C92.7803699,9.99334443 90.7802506,10.927787 90.0318616,11.4404326 C89.2834726,11.9530782 89.3695704,12.4851913 89.7536993,12.9199667 C90.1378282,13.3547421 92.1909308,14.6136439 92.7538783,15.4767055 C93.6347255,16.8329451 92.8333532,18.5785358 92.4359785,20.3760399 C92.0518496,22.0956739 91.5418854,24.418802 91.5087709,24.7108153 C91.4756563,24.9768719 91.3233294,25.1196339 91.0186754,25.087188 C90.7272673,25.0547421 90.6411695,24.8925125 90.6477924,24.6329451 C90.6544153,24.1787022 90.521957,19.3637271 90.0318616,18.1891847 C89.1112768,16.0023295 84.528222,14.5422629 83.1440334,12.9589018 Z" id="Fill-14" fill="#262626"></path>
                        <g id="Group-18" transform="translate(81.296241, 0.000000)" fill="#E83D3D">
                            <path d="M9.84826969,0.979866889 C10.3648568,1.7391015 10.7953461,2.75141431 9.72905728,3.10831947 C5.34468974,4.59434276 3.82804296,5.71697171 3.04653938,6.02845258 C1.44379475,6.67737105 0.185441527,6.45024958 0.0463603819,5.12645591 C-0.0728520286,3.9843594 0.622553699,2.47237937 1.12589499,2.00515807 C2.07959427,1.11613977 3.36443914,0.304991681 6.13281623,0.0519134775 C7.96073986,-0.116805324 9.33168258,0.22063228 9.84826969,0.979866889 Z" id="Fill-16"></path>
                        </g>
                        <path d="M104.297613,5.54825291 C104.231384,7.33926789 102.754475,8.7733777 100.893437,8.818802 C99.1913484,8.8577371 97.2640811,7.41064892 97.4627685,5.06805324 C97.5886038,3.59500832 98.8999403,1.92079867 100.886814,2.02462562 C102.814081,1.94675541 104.370465,3.50415973 104.297613,5.54825291 Z" id="Fill-19" fill="#262626"></path>
                    </g>
                </g>
            </g>
        </g>
    </g>
</svg>